<?xml version="1.0" encoding="UTF-8"?>
<svg id="Capa_1" data-name="Capa 1" xmlns="http://www.w3.org/2000/svg" viewBox="0 0 462.59 93.17">
  <defs>
    <style>
      .cls-1 {
        fill: #3789dd;
      }

      .cls-2 {
        fill: #0c447b;
      }
    </style>
  </defs>
  <g>
    <g>
      <path class="cls-2" d="m78.89,17.23l-14.16,39.57c-.61,1.74-1.18,3.65-1.69,5.68-.16-.67-.34-1.35-.53-2.04-.44-1.59-.88-3.02-1.3-4.26l-13.75-38.95h-9.26l20.59,55.19h8.24l20.82-55.19h-8.97Z"/>
      <path class="cls-2" d="m114.2,33.73c-2.76-1.66-6.04-2.5-9.75-2.5s-7.22.89-10.07,2.63c-2.85,1.75-5.07,4.27-6.59,7.48-1.5,3.19-2.27,6.97-2.27,11.23s.78,7.83,2.31,10.93c1.54,3.13,3.77,5.57,6.63,7.28,2.85,1.7,6.23,2.55,10.06,2.55,4.36,0,8.16-1.15,11.28-3.41,3.14-2.27,5.3-5.49,6.44-9.56l.2-.72-7.79-1.19-.16.56c-.67,2.28-1.87,4.13-3.58,5.51-1.69,1.36-3.74,2.06-6.07,2.06-2.14,0-4.05-.49-5.66-1.47-1.61-.97-2.9-2.41-3.84-4.28-.87-1.73-1.41-3.82-1.61-6.21h29.12v-2.03c0-4.44-.75-8.3-2.23-11.48-1.5-3.22-3.66-5.7-6.43-7.36Zm-20.18,14.1c.32-1.82.91-3.46,1.76-4.87.95-1.58,2.18-2.83,3.64-3.7,1.46-.86,3.12-1.3,4.95-1.3,2.92,0,5.2.88,6.96,2.7,1.63,1.68,2.68,4.09,3.12,7.17h-20.43Z"/>
      <path class="cls-2" d="m155.48,57.37c-.42,2.87-1.49,5.15-3.18,6.78-1.7,1.63-3.82,2.42-6.48,2.42-2.22,0-4.18-.6-5.82-1.78-1.65-1.19-2.94-2.88-3.81-5.02-.89-2.17-1.35-4.71-1.35-7.55,0-4.55,1-8.1,2.98-10.57,1.97-2.45,4.7-3.64,8.37-3.64,2.18,0,4.07.64,5.6,1.9,1.54,1.27,2.62,3.09,3.19,5.41l.15.59,7.67-1.15-.12-.68c-.48-2.67-1.51-5-3.06-6.93-1.54-1.93-3.53-3.41-5.9-4.42-2.35-1-4.98-1.5-7.83-1.5-3.87,0-7.28.82-10.14,2.44-2.87,1.63-5.12,4.06-6.68,7.23-1.54,3.14-2.33,6.98-2.33,11.43s.78,7.96,2.33,11.09c1.56,3.16,3.79,5.63,6.63,7.35,2.83,1.71,6.15,2.58,9.86,2.58,3,0,5.8-.6,8.33-1.79,2.54-1.19,4.66-2.92,6.31-5.15,1.65-2.22,2.71-4.86,3.14-7.85l.09-.66-7.86-1.19-.1.66Z"/>
      <path class="cls-2" d="m184.14,65.37c-1.54.31-2.74.46-3.58.46s-1.43-.1-1.86-.29c-.35-.16-.61-.49-.8-1.03-.23-.63-.35-1.65-.35-3.01v-22.95h7.38v-6.44h-7.38v-14.33l-7.95,5.7v8.64h-5.58v6.44h5.58v22.33c0,3.58.29,6.01.9,7.44.67,1.5,1.73,2.65,3.14,3.42,1.38.75,3.33,1.13,5.81,1.13,1.95,0,3.92-.23,5.85-.68l.61-.14-1.09-6.81-.68.14Z"/>
      <path class="cls-2" d="m216.35,33.67c-2.83-1.62-6.17-2.44-9.92-2.44s-7.06.85-9.91,2.52c-2.86,1.68-5.1,4.13-6.67,7.3-1.56,3.14-2.35,6.92-2.35,11.24s.81,8.29,2.4,11.43c1.61,3.17,3.87,5.59,6.71,7.2,2.83,1.61,6.13,2.42,9.81,2.42s7.02-.84,9.87-2.5c2.86-1.66,5.11-4.12,6.71-7.29,1.58-3.15,2.38-6.97,2.38-11.34s-.8-8.21-2.37-11.34c-1.58-3.15-3.83-5.58-6.67-7.2Zm.95,18.54c0,3.05-.46,5.7-1.36,7.86-.89,2.12-2.16,3.75-3.78,4.85-1.62,1.09-3.54,1.65-5.72,1.65s-3.99-.54-5.6-1.6c-1.61-1.06-2.89-2.67-3.82-4.78-.94-2.15-1.41-4.81-1.41-7.91s.48-5.76,1.43-7.9c.93-2.11,2.22-3.72,3.83-4.78,1.61-1.06,3.47-1.6,5.53-1.6s4.04.54,5.66,1.6c1.62,1.06,2.91,2.66,3.83,4.76.94,2.13,1.41,4.78,1.41,7.85Z"/>
      <path class="cls-2" d="m255.19,33.13c-1.1-.67-2.2-1.15-3.27-1.45-1.07-.3-2.24-.45-3.47-.45-2.23,0-4.18.56-5.78,1.66-1.14.78-2.26,1.96-3.36,3.5v-4.28h-7.51v40.31h7.95v-21.46c0-3.72.71-6.63,2.11-8.68,1.36-1.99,3.29-2.96,5.9-2.96,1.67,0,3.18.36,4.5,1.06l.67.36,2.74-7.33-.47-.29Z"/>
    </g>
    <path class="cls-1" d="m299.22,72.67l-4.8-12.55h-21.4l-4.58,12.55h-11.91l21.59-55.43h11.08l22.23,55.43h-12.21Zm-18.23-34.45l-4.57,12.52h14.41l-4.65-12.52c-.61-1.61-1.14-3.26-1.61-4.95-.47-1.69-.78-3.06-.93-4.12h-.3c-.45,3.03-1.24,6.05-2.34,9.08Z"/>
    <path class="cls-1" d="m361.76,31.64c4.18,0,7.37,1.19,9.55,3.57s3.27,6.16,3.27,11.32v26.13h-10.62v-25.94c0-2.22-.44-3.93-1.32-5.14-.88-1.21-2.23-1.81-4.05-1.81-1.51,0-2.84.43-3.97,1.3s-2.02,2.12-2.65,3.76-.95,3.61-.95,5.9v21.93h-10.62v-25.37c0-2.37-.39-4.22-1.17-5.54-.78-1.32-2.13-1.99-4.05-1.99-5.14,0-7.71,3.66-7.71,10.97v21.93h-10.62v-40.12h9.91v5.1h.08c1.54-2.02,3.28-3.52,5.22-4.52,1.94-1,4.21-1.49,6.81-1.49,5.04,0,8.71,2.1,11,6.31,1.69-2.14,3.52-3.73,5.5-4.76,1.98-1.03,4.12-1.55,6.41-1.55Z"/>
    <path class="cls-1" d="m395.71,68.35h-.19v19.66h-10.62v-55.47h9.91v5.9h.19c1.39-2.32,3.18-4.03,5.39-5.14,2.21-1.11,4.57-1.66,7.09-1.66,3.23,0,6.12.88,8.68,2.63,2.56,1.75,4.57,4.24,6.03,7.47,1.46,3.23,2.19,6.98,2.19,11.27s-.72,7.91-2.15,11.02c-1.44,3.11-3.44,5.49-5.99,7.13-2.56,1.64-5.51,2.46-8.87,2.46-2.6,0-4.76-.38-6.48-1.13s-3.45-2.13-5.16-4.12Zm9.19-28.24c-2.75,0-5.01,1.06-6.79,3.19-1.78,2.13-2.67,5.53-2.67,10.19,0,2.39.37,4.47,1.12,6.22.74,1.75,1.8,3.09,3.16,4.03s2.96,1.4,4.8,1.4c2.92,0,5.15-1.08,6.67-3.23,1.52-2.16,2.29-5.29,2.29-9.4s-.76-6.95-2.29-9.13c-1.53-2.18-3.62-3.27-6.3-3.27Z"/>
  </g>
  <g>
    <polygon class="cls-2" points="11.51 9.08 23.12 9.08 23.12 0 0 0 0 93.17 23.12 93.17 23.12 84.09 11.51 84.09 11.51 9.08"/>
    <polygon class="cls-1" points="451.08 84.09 439.47 84.09 439.47 93.17 462.59 93.17 462.59 0 439.47 0 439.47 9.08 451.08 9.08 451.08 84.09"/>
  </g>
</svg>